<svg width="113" height="119" viewBox="0 0 113 119" fill="none" xmlns="http://www.w3.org/2000/svg">
<path d="M54.8721 58.6523C55.1075 57.6607 55.2448 56.8549 55.4999 56.0699C58.0502 48.1365 62.1504 41.0709 66.8195 34.3565C67.3688 33.5714 68.0554 32.8277 68.8205 32.3318C69.2325 32.0633 70.0564 32.1046 70.5273 32.3732C70.8804 32.5797 71.1354 33.3855 71.057 33.84C70.9196 34.7077 70.6254 35.5961 70.2134 36.3811C67.5061 41.5667 64.7792 46.7317 62.013 51.8759C60.9733 53.7973 59.8747 55.698 58.7957 57.5987C58.4426 58.2391 58.0502 58.8589 57.6382 59.4374C57.187 60.0985 56.5004 60.491 55.8137 60.0572C55.3625 59.7679 54.8721 59.5613 54.8721 58.6523Z" fill="black"/>
<path d="M82.6511 89.4153C81.7094 89.25 80.6108 89.1261 79.5514 88.8782C75.3728 87.8865 71.1941 86.8948 67.0351 85.8618C66.1327 85.6346 65.2499 85.2421 64.4455 84.7875C63.3665 84.1884 62.9938 83.3414 63.1704 82.4117C63.3469 81.482 64.0532 80.9035 65.2891 80.8829C66.1327 80.8622 67.0351 80.8829 67.8395 81.0895C73.1167 82.4943 78.394 83.9405 83.6516 85.4073C84.2401 85.5726 84.8483 85.8618 85.2995 86.275C86.4374 87.2874 86.0842 88.8782 84.6325 89.2707C84.0636 89.4153 83.4162 89.3533 82.6511 89.4153Z" fill="black"/>
<path d="M27.5243 34.0262C27.6027 33.0552 27.7989 32.0842 28.0343 31.1339C28.2501 30.2868 28.7994 29.6877 29.6822 29.605C30.4277 29.5431 31.2321 30.3281 31.3498 31.3611C31.5067 32.7453 31.6441 34.1502 31.5852 35.5344C31.4086 39.7077 31.1536 43.9016 30.8789 48.0748C30.7809 49.459 30.6043 50.8432 30.3885 52.2274C30.31 52.7026 30.1531 53.1985 29.898 53.5703C29.2114 54.624 27.9559 54.5413 27.4654 53.4051C27.1908 52.7646 27.073 51.9795 27.073 51.2771C26.975 48.9632 27.2692 37.4557 27.5243 34.0262Z" fill="black"/>
</svg>
